<svg width="868" height="92" viewBox="0 0 868 92" xmlns="http://www.w3.org/2000/svg">
    <g fill="none" fill-rule="evenodd">
        <path d="M787.875 1.351h79.471" stroke="#174EA6" stroke-width="1.724"/>
        <path d="M566.321 28.068l-7.77-.052" stroke="#0D652D" stroke-width="1.724"/>
        <path d="M634.306 28.142h-53.442" stroke="#FDE293" stroke-width="1.724"/>
        <path d="M634.306 64.024h-15.957M603.794 64.024h-12.132" stroke="#0D652D" stroke-width="1.724"/>
        <path d="M328.827 56.825c0-4.186-3.425-7.581-7.652-7.581-4.224 0-7.65 3.395-7.65 7.58 0 4.187 3.426 7.582 7.65 7.582 4.227 0 7.652-3.395 7.652-7.581zM340.291 10.89c0-4.185 3.424-7.58 7.652-7.58 4.224 0 7.648 3.395 7.648 7.58 0 4.188-3.424 7.582-7.648 7.582-4.228 0-7.652-3.394-7.652-7.581zM344.116 17.456l-19.157 32.876M302.062 10.89c0-4.185-3.425-7.58-7.651-7.58-4.227 0-7.65 3.395-7.65 7.58 0 4.188 3.423 7.582 7.65 7.582 4.226 0 7.65-3.394 7.65-7.581zM298.236 17.456l19.158 32.876" stroke="#174EA6" stroke-width="1.724"/>
        <g stroke="#0D652D" stroke-width="1.724">
            <path d="M10.397 54.732L1.67 46.084l8.728-8.65 8.73 8.65z"/>
            <path d="M34.795 82.95c20.55 0 37.21-16.505 37.21-36.867 0-20.36-16.66-36.867-37.21-36.867H10.398v28.217"/>
        </g>
        <path stroke="#0D652D" stroke-width="1.724" d="M618.35 64.024l-7.279-7.21-7.277 7.21 7.277 7.211zM581.02 28.142l-7.278-7.211-7.278 7.21 7.278 7.212z"/>
        <path d="M820.333 26.865c0-3.983 3.258-7.21 7.278-7.21s7.278 3.227 7.278 7.21c0 3.982-3.258 7.21-7.278 7.21s-7.278-3.228-7.278-7.21zM820.333 54.506c0-3.982 3.258-7.21 7.278-7.21s7.278 3.228 7.278 7.21c0 3.983-3.258 7.211-7.278 7.211s-7.278-3.228-7.278-7.21zM820.333 82.148c0-3.982 3.258-7.21 7.278-7.21s7.278 3.228 7.278 7.21c0 3.983-3.258 7.211-7.278 7.211s-7.278-3.228-7.278-7.21z" stroke="#174EA6" stroke-width="1.724"/>
        <path d="M697.87 90.814h14.23c16.623 0 30.098-13.351 30.098-29.82 0-16.47-13.475-29.821-30.098-29.821" stroke="#E37400" stroke-width="1.724"/>
        <path stroke="#A50E0E" stroke-width="1.724" d="M474.473 60.89h-31.007v30.723"/>
        <path stroke="#FBBC04" stroke-width="1.718" d="M487.867 1.34h-44.4v44.744"/>
        <g stroke="#E37400" stroke-width="1.724">
            <path d="M222.134 28.142h-54.775M222.134 46.083h-54.775M222.134 64.024h-54.775"/>
        </g>
        <path d="M691.052 52.487c-5.584-5.413-9.05-12.963-9.05-21.315 0-16.469 13.477-29.822 30.099-29.822h20.064" stroke="#E37400" stroke-width="1.724"/>
    </g>
</svg>
